<svg xmlns="http://www.w3.org/2000/svg" width="1020" height="640" viewBox="0 0 1020 640" font-family="-apple-system,Segoe UI,Helvetica,Arial,sans-serif"><rect width="1020" height="640" fill="white"/><text x="24" y="30" font-size="20" font-weight="700" fill="#0f172a">Hit ratio vs cache size (multi-shard, same harness)</text><text x="24" y="50" font-size="13" fill="#64748b">x = cache size as % of the trace's unique keys (log scale). Each panel auto-scaled. Higher is better.</text><rect x="70" y="65" width="13" height="13" rx="2" fill="#16a34a"/><text x="88" y="76" font-size="13" fill="#334155">kioshun</text><rect x="150" y="65" width="13" height="13" rx="2" fill="#2563eb"/><text x="168" y="76" font-size="13" fill="#334155">theine</text><rect x="222" y="65" width="13" height="13" rx="2" fill="#ea580c"/><text x="240" y="76" font-size="13" fill="#334155">otter</text><rect x="286" y="65" width="13" height="13" rx="2" fill="#64748b"/><text x="304" y="76" font-size="13" fill="#334155">ristretto</text><text x="68.0" y="118" font-size="14" font-weight="700" fill="#0f172a">p3</text><line x1="68.0" y1="330.0" x2="330.0" y2="330.0" stroke="#eef2f7"/><text x="64.0" y="333.0" font-size="9" fill="#94a3b8" text-anchor="end">0%</text><line x1="68.0" y1="279.5" x2="330.0" y2="279.5" stroke="#eef2f7"/><text x="64.0" y="282.5" font-size="9" fill="#94a3b8" text-anchor="end">25%</text><line x1="68.0" y1="229.0" x2="330.0" y2="229.0" stroke="#eef2f7"/><text x="64.0" y="232.0" font-size="9" fill="#94a3b8" text-anchor="end">50%</text><line x1="68.0" y1="178.5" x2="330.0" y2="178.5" stroke="#eef2f7"/><text x="64.0" y="181.5" font-size="9" fill="#94a3b8" text-anchor="end">75%</text><line x1="68.0" y1="128.0" x2="330.0" y2="128.0" stroke="#eef2f7"/><text x="64.0" y="131.0" font-size="9" fill="#94a3b8" text-anchor="end">100%</text><text x="68.0" y="345.0" font-size="9" fill="#94a3b8" text-anchor="middle">1%</text><text x="142.6" y="345.0" font-size="9" fill="#94a3b8" text-anchor="middle">2.5%</text><text x="199.0" y="345.0" font-size="9" fill="#94a3b8" text-anchor="middle">5%</text><text x="255.4" y="345.0" font-size="9" fill="#94a3b8" text-anchor="middle">10%</text><text x="330.0" y="345.0" font-size="9" fill="#94a3b8" text-anchor="middle">25%</text><path d="M68.0 323.8 L142.6 313.7 L199.0 292.2 L255.4 260.3 L330.0 211.1 " fill="none" stroke="#16a34a" stroke-width="2.2"/><circle cx="68.0" cy="323.8" r="2.7" fill="#16a34a"/><circle cx="142.6" cy="313.7" r="2.7" fill="#16a34a"/><circle cx="199.0" cy="292.2" r="2.7" fill="#16a34a"/><circle cx="255.4" cy="260.3" r="2.7" fill="#16a34a"/><circle cx="330.0" cy="211.1" r="2.7" fill="#16a34a"/><path d="M68.0 322.5 L142.6 307.0 L199.0 293.5 L255.4 265.6 L330.0 219.3 " fill="none" stroke="#2563eb" stroke-width="2.2"/><circle cx="68.0" cy="322.5" r="2.7" fill="#2563eb"/><circle cx="142.6" cy="307.0" r="2.7" fill="#2563eb"/><circle cx="199.0" cy="293.5" r="2.7" fill="#2563eb"/><circle cx="255.4" cy="265.6" r="2.7" fill="#2563eb"/><circle cx="330.0" cy="219.3" r="2.7" fill="#2563eb"/><path d="M68.0 322.8 L142.6 311.1 L199.0 293.7 L255.4 266.3 L330.0 224.6 " fill="none" stroke="#ea580c" stroke-width="2.2"/><circle cx="68.0" cy="322.8" r="2.7" fill="#ea580c"/><circle cx="142.6" cy="311.1" r="2.7" fill="#ea580c"/><circle cx="199.0" cy="293.7" r="2.7" fill="#ea580c"/><circle cx="255.4" cy="266.3" r="2.7" fill="#ea580c"/><circle cx="330.0" cy="224.6" r="2.7" fill="#ea580c"/><path d="M68.0 323.7 L142.6 315.6 L199.0 304.2 L255.4 294.8 L330.0 280.7 " fill="none" stroke="#64748b" stroke-width="2.2"/><circle cx="68.0" cy="323.7" r="2.7" fill="#64748b"/><circle cx="142.6" cy="315.6" r="2.7" fill="#64748b"/><circle cx="199.0" cy="304.2" r="2.7" fill="#64748b"/><circle cx="255.4" cy="294.8" r="2.7" fill="#64748b"/><circle cx="330.0" cy="280.7" r="2.7" fill="#64748b"/><text x="392.0" y="118" font-size="14" font-weight="700" fill="#0f172a">p8</text><line x1="392.0" y1="330.0" x2="654.0" y2="330.0" stroke="#eef2f7"/><text x="388.0" y="333.0" font-size="9" fill="#94a3b8" text-anchor="end">0%</text><line x1="392.0" y1="279.5" x2="654.0" y2="279.5" stroke="#eef2f7"/><text x="388.0" y="282.5" font-size="9" fill="#94a3b8" text-anchor="end">25%</text><line x1="392.0" y1="229.0" x2="654.0" y2="229.0" stroke="#eef2f7"/><text x="388.0" y="232.0" font-size="9" fill="#94a3b8" text-anchor="end">50%</text><line x1="392.0" y1="178.5" x2="654.0" y2="178.5" stroke="#eef2f7"/><text x="388.0" y="181.5" font-size="9" fill="#94a3b8" text-anchor="end">75%</text><line x1="392.0" y1="128.0" x2="654.0" y2="128.0" stroke="#eef2f7"/><text x="388.0" y="131.0" font-size="9" fill="#94a3b8" text-anchor="end">100%</text><text x="392.0" y="345.0" font-size="9" fill="#94a3b8" text-anchor="middle">1%</text><text x="466.6" y="345.0" font-size="9" fill="#94a3b8" text-anchor="middle">2.5%</text><text x="523.0" y="345.0" font-size="9" fill="#94a3b8" text-anchor="middle">5%</text><text x="579.4" y="345.0" font-size="9" fill="#94a3b8" text-anchor="middle">10%</text><text x="654.0" y="345.0" font-size="9" fill="#94a3b8" text-anchor="middle">25%</text><path d="M392.0 315.7 L466.6 281.7 L523.0 251.4 L579.4 211.0 L654.0 154.6 " fill="none" stroke="#16a34a" stroke-width="2.2"/><circle cx="392.0" cy="315.7" r="2.7" fill="#16a34a"/><circle cx="466.6" cy="281.7" r="2.7" fill="#16a34a"/><circle cx="523.0" cy="251.4" r="2.7" fill="#16a34a"/><circle cx="579.4" cy="211.0" r="2.7" fill="#16a34a"/><circle cx="654.0" cy="154.6" r="2.7" fill="#16a34a"/><path d="M392.0 307.3 L466.6 297.2 L523.0 268.8 L579.4 222.3 L654.0 159.7 " fill="none" stroke="#2563eb" stroke-width="2.2"/><circle cx="392.0" cy="307.3" r="2.7" fill="#2563eb"/><circle cx="466.6" cy="297.2" r="2.7" fill="#2563eb"/><circle cx="523.0" cy="268.8" r="2.7" fill="#2563eb"/><circle cx="579.4" cy="222.3" r="2.7" fill="#2563eb"/><circle cx="654.0" cy="159.7" r="2.7" fill="#2563eb"/><path d="M392.0 308.3 L466.6 289.0 L523.0 256.9 L579.4 219.0 L654.0 160.3 " fill="none" stroke="#ea580c" stroke-width="2.2"/><circle cx="392.0" cy="308.3" r="2.7" fill="#ea580c"/><circle cx="466.6" cy="289.0" r="2.7" fill="#ea580c"/><circle cx="523.0" cy="256.9" r="2.7" fill="#ea580c"/><circle cx="579.4" cy="219.0" r="2.7" fill="#ea580c"/><circle cx="654.0" cy="160.3" r="2.7" fill="#ea580c"/><path d="M392.0 308.1 L466.6 283.4 L523.0 254.6 L579.4 218.7 L654.0 181.0 " fill="none" stroke="#64748b" stroke-width="2.2"/><circle cx="392.0" cy="308.1" r="2.7" fill="#64748b"/><circle cx="466.6" cy="283.4" r="2.7" fill="#64748b"/><circle cx="523.0" cy="254.6" r="2.7" fill="#64748b"/><circle cx="579.4" cy="218.7" r="2.7" fill="#64748b"/><circle cx="654.0" cy="181.0" r="2.7" fill="#64748b"/><text x="716.0" y="118" font-size="14" font-weight="700" fill="#0f172a">s3</text><line x1="716.0" y1="330.0" x2="978.0" y2="330.0" stroke="#eef2f7"/><text x="712.0" y="333.0" font-size="9" fill="#94a3b8" text-anchor="end">0%</text><line x1="716.0" y1="279.5" x2="978.0" y2="279.5" stroke="#eef2f7"/><text x="712.0" y="282.5" font-size="9" fill="#94a3b8" text-anchor="end">10%</text><line x1="716.0" y1="229.0" x2="978.0" y2="229.0" stroke="#eef2f7"/><text x="712.0" y="232.0" font-size="9" fill="#94a3b8" text-anchor="end">20%</text><line x1="716.0" y1="178.5" x2="978.0" y2="178.5" stroke="#eef2f7"/><text x="712.0" y="181.5" font-size="9" fill="#94a3b8" text-anchor="end">30%</text><line x1="716.0" y1="128.0" x2="978.0" y2="128.0" stroke="#eef2f7"/><text x="712.0" y="131.0" font-size="9" fill="#94a3b8" text-anchor="end">40%</text><text x="716.0" y="345.0" font-size="9" fill="#94a3b8" text-anchor="middle">1%</text><text x="790.6" y="345.0" font-size="9" fill="#94a3b8" text-anchor="middle">2.5%</text><text x="847.0" y="345.0" font-size="9" fill="#94a3b8" text-anchor="middle">5%</text><text x="903.4" y="345.0" font-size="9" fill="#94a3b8" text-anchor="middle">10%</text><text x="978.0" y="345.0" font-size="9" fill="#94a3b8" text-anchor="middle">25%</text><path d="M716.0 322.7 L790.6 301.9 L847.0 275.8 L903.4 231.5 L978.0 130.5 " fill="none" stroke="#16a34a" stroke-width="2.2"/><circle cx="716.0" cy="322.7" r="2.7" fill="#16a34a"/><circle cx="790.6" cy="301.9" r="2.7" fill="#16a34a"/><circle cx="847.0" cy="275.8" r="2.7" fill="#16a34a"/><circle cx="903.4" cy="231.5" r="2.7" fill="#16a34a"/><circle cx="978.0" cy="130.5" r="2.7" fill="#16a34a"/><path d="M716.0 321.5 L790.6 304.6 L847.0 278.3 L903.4 235.5 L978.0 131.4 " fill="none" stroke="#2563eb" stroke-width="2.2"/><circle cx="716.0" cy="321.5" r="2.7" fill="#2563eb"/><circle cx="790.6" cy="304.6" r="2.7" fill="#2563eb"/><circle cx="847.0" cy="278.3" r="2.7" fill="#2563eb"/><circle cx="903.4" cy="235.5" r="2.7" fill="#2563eb"/><circle cx="978.0" cy="131.4" r="2.7" fill="#2563eb"/><path d="M716.0 324.3 L790.6 313.8 L847.0 295.7 L903.4 251.6 L978.0 138.9 " fill="none" stroke="#ea580c" stroke-width="2.2"/><circle cx="716.0" cy="324.3" r="2.7" fill="#ea580c"/><circle cx="790.6" cy="313.8" r="2.7" fill="#ea580c"/><circle cx="847.0" cy="295.7" r="2.7" fill="#ea580c"/><circle cx="903.4" cy="251.6" r="2.7" fill="#ea580c"/><circle cx="978.0" cy="138.9" r="2.7" fill="#ea580c"/><path d="M716.0 321.9 L790.6 309.2 L847.0 287.8 L903.4 252.7 L978.0 200.6 " fill="none" stroke="#64748b" stroke-width="2.2"/><circle cx="716.0" cy="321.9" r="2.7" fill="#64748b"/><circle cx="790.6" cy="309.2" r="2.7" fill="#64748b"/><circle cx="847.0" cy="287.8" r="2.7" fill="#64748b"/><circle cx="903.4" cy="252.7" r="2.7" fill="#64748b"/><circle cx="978.0" cy="200.6" r="2.7" fill="#64748b"/><text x="68.0" y="380" font-size="14" font-weight="700" fill="#0f172a">ds1</text><line x1="68.0" y1="592.0" x2="330.0" y2="592.0" stroke="#eef2f7"/><text x="64.0" y="595.0" font-size="9" fill="#94a3b8" text-anchor="end">0%</text><line x1="68.0" y1="541.5" x2="330.0" y2="541.5" stroke="#eef2f7"/><text x="64.0" y="544.5" font-size="9" fill="#94a3b8" text-anchor="end">10%</text><line x1="68.0" y1="491.0" x2="330.0" y2="491.0" stroke="#eef2f7"/><text x="64.0" y="494.0" font-size="9" fill="#94a3b8" text-anchor="end">20%</text><line x1="68.0" y1="440.5" x2="330.0" y2="440.5" stroke="#eef2f7"/><text x="64.0" y="443.5" font-size="9" fill="#94a3b8" text-anchor="end">30%</text><line x1="68.0" y1="390.0" x2="330.0" y2="390.0" stroke="#eef2f7"/><text x="64.0" y="393.0" font-size="9" fill="#94a3b8" text-anchor="end">40%</text><text x="68.0" y="607.0" font-size="9" fill="#94a3b8" text-anchor="middle">1%</text><text x="142.6" y="607.0" font-size="9" fill="#94a3b8" text-anchor="middle">2.5%</text><text x="199.0" y="607.0" font-size="9" fill="#94a3b8" text-anchor="middle">5%</text><text x="255.4" y="607.0" font-size="9" fill="#94a3b8" text-anchor="middle">10%</text><text x="330.0" y="607.0" font-size="9" fill="#94a3b8" text-anchor="middle">25%</text><path d="M68.0 582.2 L142.6 569.6 L199.0 563.3 L255.4 535.7 L330.0 425.1 " fill="none" stroke="#16a34a" stroke-width="2.2"/><circle cx="68.0" cy="582.2" r="2.7" fill="#16a34a"/><circle cx="142.6" cy="569.6" r="2.7" fill="#16a34a"/><circle cx="199.0" cy="563.3" r="2.7" fill="#16a34a"/><circle cx="255.4" cy="535.7" r="2.7" fill="#16a34a"/><circle cx="330.0" cy="425.1" r="2.7" fill="#16a34a"/><path d="M68.0 584.2 L142.6 578.1 L199.0 557.5 L255.4 533.3 L330.0 457.9 " fill="none" stroke="#2563eb" stroke-width="2.2"/><circle cx="68.0" cy="584.2" r="2.7" fill="#2563eb"/><circle cx="142.6" cy="578.1" r="2.7" fill="#2563eb"/><circle cx="199.0" cy="557.5" r="2.7" fill="#2563eb"/><circle cx="255.4" cy="533.3" r="2.7" fill="#2563eb"/><circle cx="330.0" cy="457.9" r="2.7" fill="#2563eb"/><path d="M68.0 583.6 L142.6 579.4 L199.0 566.1 L255.4 534.0 L330.0 448.3 " fill="none" stroke="#ea580c" stroke-width="2.2"/><circle cx="68.0" cy="583.6" r="2.7" fill="#ea580c"/><circle cx="142.6" cy="579.4" r="2.7" fill="#ea580c"/><circle cx="199.0" cy="566.1" r="2.7" fill="#ea580c"/><circle cx="255.4" cy="534.0" r="2.7" fill="#ea580c"/><circle cx="330.0" cy="448.3" r="2.7" fill="#ea580c"/><path d="M68.0 584.6 L142.6 575.2 L199.0 564.8 L255.4 547.4 L330.0 537.3 " fill="none" stroke="#64748b" stroke-width="2.2"/><circle cx="68.0" cy="584.6" r="2.7" fill="#64748b"/><circle cx="142.6" cy="575.2" r="2.7" fill="#64748b"/><circle cx="199.0" cy="564.8" r="2.7" fill="#64748b"/><circle cx="255.4" cy="547.4" r="2.7" fill="#64748b"/><circle cx="330.0" cy="537.3" r="2.7" fill="#64748b"/><text x="392.0" y="380" font-size="14" font-weight="700" fill="#0f172a">oltp</text><line x1="392.0" y1="592.0" x2="654.0" y2="592.0" stroke="#eef2f7"/><text x="388.0" y="595.0" font-size="9" fill="#94a3b8" text-anchor="end">0%</text><line x1="392.0" y1="541.5" x2="654.0" y2="541.5" stroke="#eef2f7"/><text x="388.0" y="544.5" font-size="9" fill="#94a3b8" text-anchor="end">25%</text><line x1="392.0" y1="491.0" x2="654.0" y2="491.0" stroke="#eef2f7"/><text x="388.0" y="494.0" font-size="9" fill="#94a3b8" text-anchor="end">50%</text><line x1="392.0" y1="440.5" x2="654.0" y2="440.5" stroke="#eef2f7"/><text x="388.0" y="443.5" font-size="9" fill="#94a3b8" text-anchor="end">75%</text><line x1="392.0" y1="390.0" x2="654.0" y2="390.0" stroke="#eef2f7"/><text x="388.0" y="393.0" font-size="9" fill="#94a3b8" text-anchor="end">100%</text><text x="392.0" y="607.0" font-size="9" fill="#94a3b8" text-anchor="middle">1%</text><text x="466.6" y="607.0" font-size="9" fill="#94a3b8" text-anchor="middle">2.5%</text><text x="523.0" y="607.0" font-size="9" fill="#94a3b8" text-anchor="middle">5%</text><text x="579.4" y="607.0" font-size="9" fill="#94a3b8" text-anchor="middle">10%</text><text x="654.0" y="607.0" font-size="9" fill="#94a3b8" text-anchor="middle">25%</text><path d="M392.0 510.8 L466.6 491.4 L523.0 476.3 L579.4 463.7 L654.0 447.7 " fill="none" stroke="#16a34a" stroke-width="2.2"/><circle cx="392.0" cy="510.8" r="2.7" fill="#16a34a"/><circle cx="466.6" cy="491.4" r="2.7" fill="#16a34a"/><circle cx="523.0" cy="476.3" r="2.7" fill="#16a34a"/><circle cx="579.4" cy="463.7" r="2.7" fill="#16a34a"/><circle cx="654.0" cy="447.7" r="2.7" fill="#16a34a"/><path d="M392.0 503.5 L466.6 489.7 L523.0 477.4 L579.4 465.9 L654.0 448.6 " fill="none" stroke="#2563eb" stroke-width="2.2"/><circle cx="392.0" cy="503.5" r="2.7" fill="#2563eb"/><circle cx="466.6" cy="489.7" r="2.7" fill="#2563eb"/><circle cx="523.0" cy="477.4" r="2.7" fill="#2563eb"/><circle cx="579.4" cy="465.9" r="2.7" fill="#2563eb"/><circle cx="654.0" cy="448.6" r="2.7" fill="#2563eb"/><path d="M392.0 493.5 L466.6 479.3 L523.0 468.8 L579.4 459.6 L654.0 447.7 " fill="none" stroke="#ea580c" stroke-width="2.2"/><circle cx="392.0" cy="493.5" r="2.7" fill="#ea580c"/><circle cx="466.6" cy="479.3" r="2.7" fill="#ea580c"/><circle cx="523.0" cy="468.8" r="2.7" fill="#ea580c"/><circle cx="579.4" cy="459.6" r="2.7" fill="#ea580c"/><circle cx="654.0" cy="447.7" r="2.7" fill="#ea580c"/><path d="M392.0 547.8 L466.6 539.3 L523.0 533.7 L579.4 533.8 L654.0 535.6 " fill="none" stroke="#64748b" stroke-width="2.2"/><circle cx="392.0" cy="547.8" r="2.7" fill="#64748b"/><circle cx="466.6" cy="539.3" r="2.7" fill="#64748b"/><circle cx="523.0" cy="533.7" r="2.7" fill="#64748b"/><circle cx="579.4" cy="533.8" r="2.7" fill="#64748b"/><circle cx="654.0" cy="535.6" r="2.7" fill="#64748b"/></svg>