<svg xmlns="http://www.w3.org/2000/svg" width="940" height="480" viewBox="0 0 940 480" font-family="-apple-system,Segoe UI,Helvetica,Arial,sans-serif"><rect width="940" height="480" fill="white"/><text x="24" y="30" font-size="20" font-weight="700" fill="#0f172a">Hit ratio achieved (% of the Belady optimum)</text><text x="24" y="50" font-size="13" fill="#64748b">Higher is better. 100% = the theoretical maximum for that trace. Multi-shard, cap 100k, same harness.</text><rect x="70" y="67" width="13" height="13" rx="2" fill="#16a34a"/><text x="88" y="78" font-size="13" fill="#334155">kioshun</text><rect x="150" y="67" width="13" height="13" rx="2" fill="#2563eb"/><text x="168" y="78" font-size="13" fill="#334155">theine</text><rect x="222" y="67" width="13" height="13" rx="2" fill="#ea580c"/><text x="240" y="78" font-size="13" fill="#334155">otter</text><rect x="286" y="67" width="13" height="13" rx="2" fill="#64748b"/><text x="304" y="78" font-size="13" fill="#334155">ristretto</text><line x1="70" y1="402.0" x2="916" y2="402.0" stroke="#eef2f7"/><text x="62" y="406.0" font-size="11" fill="#94a3b8" text-anchor="end">0%</text><line x1="70" y1="340.8" x2="916" y2="340.8" stroke="#eef2f7"/><text x="62" y="344.8" font-size="11" fill="#94a3b8" text-anchor="end">20%</text><line x1="70" y1="279.6" x2="916" y2="279.6" stroke="#eef2f7"/><text x="62" y="283.6" font-size="11" fill="#94a3b8" text-anchor="end">40%</text><line x1="70" y1="218.4" x2="916" y2="218.4" stroke="#eef2f7"/><text x="62" y="222.4" font-size="11" fill="#94a3b8" text-anchor="end">60%</text><line x1="70" y1="157.2" x2="916" y2="157.2" stroke="#eef2f7"/><text x="62" y="161.2" font-size="11" fill="#94a3b8" text-anchor="end">80%</text><line x1="70" y1="96.0" x2="916" y2="96.0" stroke="#eef2f7"/><text x="62" y="100.0" font-size="11" fill="#94a3b8" text-anchor="end">100%</text><rect x="85.5" y="185.0" width="25.5" height="217.0" rx="2" fill="#16a34a"/><text x="98.3" y="182.0" font-size="9.5" fill="#475569" text-anchor="middle">71</text><rect x="113.0" y="215.1" width="25.5" height="186.9" rx="2" fill="#2563eb"/><text x="125.8" y="212.1" font-size="9.5" fill="#475569" text-anchor="middle">61</text><rect x="140.5" y="222.7" width="25.5" height="179.3" rx="2" fill="#ea580c"/><text x="153.2" y="219.7" font-size="9.5" fill="#475569" text-anchor="middle">59</text><rect x="168.0" y="294.2" width="25.5" height="107.8" rx="2" fill="#64748b"/><text x="180.7" y="291.2" font-size="9.5" fill="#475569" text-anchor="middle">35</text><text x="140.5" y="424" font-size="13" font-weight="600" fill="#0f172a" text-anchor="middle">p3</text><rect x="226.5" y="166.1" width="25.5" height="235.9" rx="2" fill="#16a34a"/><text x="239.3" y="163.1" font-size="9.5" fill="#475569" text-anchor="middle">77</text><rect x="254.0" y="188.2" width="25.5" height="213.8" rx="2" fill="#2563eb"/><text x="266.8" y="185.2" font-size="9.5" fill="#475569" text-anchor="middle">70</text><rect x="281.5" y="181.5" width="25.5" height="220.5" rx="2" fill="#ea580c"/><text x="294.2" y="178.5" font-size="9.5" fill="#475569" text-anchor="middle">72</text><rect x="309.0" y="181.9" width="25.5" height="220.1" rx="2" fill="#64748b"/><text x="321.7" y="178.9" font-size="9.5" fill="#475569" text-anchor="middle">72</text><text x="281.5" y="424" font-size="13" font-weight="600" fill="#0f172a" text-anchor="middle">p8</text><rect x="367.5" y="251.8" width="25.5" height="150.2" rx="2" fill="#16a34a"/><text x="380.3" y="248.8" font-size="9.5" fill="#475569" text-anchor="middle">49</text><rect x="395.0" y="258.5" width="25.5" height="143.5" rx="2" fill="#2563eb"/><text x="407.8" y="255.5" font-size="9.5" fill="#475569" text-anchor="middle">47</text><rect x="422.5" y="289.8" width="25.5" height="112.2" rx="2" fill="#ea580c"/><text x="435.2" y="286.8" font-size="9.5" fill="#475569" text-anchor="middle">37</text><rect x="450.0" y="282.9" width="25.5" height="119.1" rx="2" fill="#64748b"/><text x="462.7" y="279.9" font-size="9.5" fill="#475569" text-anchor="middle">39</text><text x="422.5" y="424" font-size="13" font-weight="600" fill="#0f172a" text-anchor="middle">s3</text><rect x="508.5" y="289.9" width="25.5" height="112.1" rx="2" fill="#16a34a"/><text x="521.3" y="286.9" font-size="9.5" fill="#475569" text-anchor="middle">37</text><rect x="536.0" y="314.2" width="25.5" height="87.8" rx="2" fill="#2563eb"/><text x="548.8" y="311.2" font-size="9.5" fill="#475569" text-anchor="middle">29</text><rect x="563.5" y="312.5" width="25.5" height="89.5" rx="2" fill="#ea580c"/><text x="576.2" y="309.5" font-size="9.5" fill="#475569" text-anchor="middle">29</text><rect x="591.0" y="320.2" width="25.5" height="81.8" rx="2" fill="#64748b"/><text x="603.7" y="317.2" font-size="9.5" fill="#475569" text-anchor="middle">27</text><text x="563.5" y="424" font-size="13" font-weight="600" fill="#0f172a" text-anchor="middle">ds1</text><rect x="649.5" y="100.9" width="25.5" height="301.1" rx="2" fill="#16a34a"/><text x="662.3" y="97.9" font-size="9.5" fill="#475569" text-anchor="middle">98</text><rect x="677.0" y="107.3" width="25.5" height="294.7" rx="2" fill="#2563eb"/><text x="689.8" y="104.3" font-size="9.5" fill="#475569" text-anchor="middle">96</text><rect x="704.5" y="108.1" width="25.5" height="293.9" rx="2" fill="#ea580c"/><text x="717.2" y="105.1" font-size="9.5" fill="#475569" text-anchor="middle">96</text><rect x="732.0" y="288.0" width="25.5" height="114.0" rx="2" fill="#64748b"/><text x="744.7" y="285.0" font-size="9.5" fill="#475569" text-anchor="middle">37</text><text x="704.5" y="424" font-size="13" font-weight="600" fill="#0f172a" text-anchor="middle">oltp</text><rect x="790.5" y="98.6" width="25.5" height="303.4" rx="2" fill="#16a34a"/><text x="803.3" y="95.6" font-size="9.5" fill="#475569" text-anchor="middle">99</text><rect x="818.0" y="96.0" width="25.5" height="306.0" rx="2" fill="#2563eb"/><text x="830.8" y="93.0" font-size="9.5" fill="#475569" text-anchor="middle">100</text><rect x="845.5" y="96.6" width="25.5" height="305.4" rx="2" fill="#ea580c"/><text x="858.2" y="93.6" font-size="9.5" fill="#475569" text-anchor="middle">100</text><rect x="873.0" y="120.5" width="25.5" height="281.5" rx="2" fill="#64748b"/><text x="885.7" y="117.5" font-size="9.5" fill="#475569" text-anchor="middle">92</text><text x="845.5" y="424" font-size="13" font-weight="600" fill="#0f172a" text-anchor="middle">loop</text></svg>