<svg xmlns="http://www.w3.org/2000/svg" width="1020" height="640" viewBox="0 0 1020 640" font-family="-apple-system,Segoe UI,Helvetica,Arial,sans-serif"><rect width="1020" height="640" fill="white"/><text x="24" y="30" font-size="20" font-weight="700" fill="#0f172a">Hit ratio vs cache size (multi-shard, same harness)</text><text x="24" y="50" font-size="13" fill="#64748b">x = cache size as % of the trace's unique keys (log scale). Each panel auto-scaled. Higher is better.</text><rect x="70" y="65" width="13" height="13" rx="2" fill="#16a34a"/><text x="88" y="76" font-size="13" fill="#334155">kioshun</text><rect x="150" y="65" width="13" height="13" rx="2" fill="#2563eb"/><text x="168" y="76" font-size="13" fill="#334155">theine</text><rect x="222" y="65" width="13" height="13" rx="2" fill="#ea580c"/><text x="240" y="76" font-size="13" fill="#334155">otter</text><rect x="286" y="65" width="13" height="13" rx="2" fill="#64748b"/><text x="304" y="76" font-size="13" fill="#334155">ristretto</text><text x="68.0" y="118" font-size="14" font-weight="700" fill="#0f172a">p3</text><line x1="68.0" y1="330.0" x2="330.0" y2="330.0" stroke="#eef2f7"/><text x="64.0" y="333.0" font-size="9" fill="#94a3b8" text-anchor="end">0%</text><line x1="68.0" y1="279.5" x2="330.0" y2="279.5" stroke="#eef2f7"/><text x="64.0" y="282.5" font-size="9" fill="#94a3b8" text-anchor="end">25%</text><line x1="68.0" y1="229.0" x2="330.0" y2="229.0" stroke="#eef2f7"/><text x="64.0" y="232.0" font-size="9" fill="#94a3b8" text-anchor="end">50%</text><line x1="68.0" y1="178.5" x2="330.0" y2="178.5" stroke="#eef2f7"/><text x="64.0" y="181.5" font-size="9" fill="#94a3b8" text-anchor="end">75%</text><line x1="68.0" y1="128.0" x2="330.0" y2="128.0" stroke="#eef2f7"/><text x="64.0" y="131.0" font-size="9" fill="#94a3b8" text-anchor="end">100%</text><text x="68.0" y="345.0" font-size="9" fill="#94a3b8" text-anchor="middle">1%</text><text x="142.6" y="345.0" font-size="9" fill="#94a3b8" text-anchor="middle">2.5%</text><text x="199.0" y="345.0" font-size="9" fill="#94a3b8" text-anchor="middle">5%</text><text x="255.4" y="345.0" font-size="9" fill="#94a3b8" text-anchor="middle">10%</text><text x="330.0" y="345.0" font-size="9" fill="#94a3b8" text-anchor="middle">25%</text><path d="M68.0 323.8 L142.6 313.5 L199.0 292.3 L255.4 260.2 L330.0 211.2 " fill="none" stroke="#16a34a" stroke-width="2.2"/><circle cx="68.0" cy="323.8" r="2.7" fill="#16a34a"/><circle cx="142.6" cy="313.5" r="2.7" fill="#16a34a"/><circle cx="199.0" cy="292.3" r="2.7" fill="#16a34a"/><circle cx="255.4" cy="260.2" r="2.7" fill="#16a34a"/><circle cx="330.0" cy="211.2" r="2.7" fill="#16a34a"/><path d="M68.0 322.3 L142.6 306.7 L199.0 291.9 L255.4 264.0 L330.0 219.7 " fill="none" stroke="#2563eb" stroke-width="2.2"/><circle cx="68.0" cy="322.3" r="2.7" fill="#2563eb"/><circle cx="142.6" cy="306.7" r="2.7" fill="#2563eb"/><circle cx="199.0" cy="291.9" r="2.7" fill="#2563eb"/><circle cx="255.4" cy="264.0" r="2.7" fill="#2563eb"/><circle cx="330.0" cy="219.7" r="2.7" fill="#2563eb"/><path d="M68.0 322.5 L142.6 312.6 L199.0 294.4 L255.4 265.7 L330.0 225.7 " fill="none" stroke="#ea580c" stroke-width="2.2"/><circle cx="68.0" cy="322.5" r="2.7" fill="#ea580c"/><circle cx="142.6" cy="312.6" r="2.7" fill="#ea580c"/><circle cx="199.0" cy="294.4" r="2.7" fill="#ea580c"/><circle cx="255.4" cy="265.7" r="2.7" fill="#ea580c"/><circle cx="330.0" cy="225.7" r="2.7" fill="#ea580c"/><path d="M68.0 323.8 L142.6 316.0 L199.0 306.6 L255.4 293.7 L330.0 283.6 " fill="none" stroke="#64748b" stroke-width="2.2"/><circle cx="68.0" cy="323.8" r="2.7" fill="#64748b"/><circle cx="142.6" cy="316.0" r="2.7" fill="#64748b"/><circle cx="199.0" cy="306.6" r="2.7" fill="#64748b"/><circle cx="255.4" cy="293.7" r="2.7" fill="#64748b"/><circle cx="330.0" cy="283.6" r="2.7" fill="#64748b"/><text x="392.0" y="118" font-size="14" font-weight="700" fill="#0f172a">p8</text><line x1="392.0" y1="330.0" x2="654.0" y2="330.0" stroke="#eef2f7"/><text x="388.0" y="333.0" font-size="9" fill="#94a3b8" text-anchor="end">0%</text><line x1="392.0" y1="279.5" x2="654.0" y2="279.5" stroke="#eef2f7"/><text x="388.0" y="282.5" font-size="9" fill="#94a3b8" text-anchor="end">25%</text><line x1="392.0" y1="229.0" x2="654.0" y2="229.0" stroke="#eef2f7"/><text x="388.0" y="232.0" font-size="9" fill="#94a3b8" text-anchor="end">50%</text><line x1="392.0" y1="178.5" x2="654.0" y2="178.5" stroke="#eef2f7"/><text x="388.0" y="181.5" font-size="9" fill="#94a3b8" text-anchor="end">75%</text><line x1="392.0" y1="128.0" x2="654.0" y2="128.0" stroke="#eef2f7"/><text x="388.0" y="131.0" font-size="9" fill="#94a3b8" text-anchor="end">100%</text><text x="392.0" y="345.0" font-size="9" fill="#94a3b8" text-anchor="middle">1%</text><text x="466.6" y="345.0" font-size="9" fill="#94a3b8" text-anchor="middle">2.5%</text><text x="523.0" y="345.0" font-size="9" fill="#94a3b8" text-anchor="middle">5%</text><text x="579.4" y="345.0" font-size="9" fill="#94a3b8" text-anchor="middle">10%</text><text x="654.0" y="345.0" font-size="9" fill="#94a3b8" text-anchor="middle">25%</text><path d="M392.0 315.7 L466.6 281.5 L523.0 251.4 L579.4 210.9 L654.0 154.1 " fill="none" stroke="#16a34a" stroke-width="2.2"/><circle cx="392.0" cy="315.7" r="2.7" fill="#16a34a"/><circle cx="466.6" cy="281.5" r="2.7" fill="#16a34a"/><circle cx="523.0" cy="251.4" r="2.7" fill="#16a34a"/><circle cx="579.4" cy="210.9" r="2.7" fill="#16a34a"/><circle cx="654.0" cy="154.1" r="2.7" fill="#16a34a"/><path d="M392.0 306.9 L466.6 286.3 L523.0 269.3 L579.4 221.9 L654.0 160.0 " fill="none" stroke="#2563eb" stroke-width="2.2"/><circle cx="392.0" cy="306.9" r="2.7" fill="#2563eb"/><circle cx="466.6" cy="286.3" r="2.7" fill="#2563eb"/><circle cx="523.0" cy="269.3" r="2.7" fill="#2563eb"/><circle cx="579.4" cy="221.9" r="2.7" fill="#2563eb"/><circle cx="654.0" cy="160.0" r="2.7" fill="#2563eb"/><path d="M392.0 308.7 L466.6 286.6 L523.0 257.7 L579.4 219.9 L654.0 161.1 " fill="none" stroke="#ea580c" stroke-width="2.2"/><circle cx="392.0" cy="308.7" r="2.7" fill="#ea580c"/><circle cx="466.6" cy="286.6" r="2.7" fill="#ea580c"/><circle cx="523.0" cy="257.7" r="2.7" fill="#ea580c"/><circle cx="579.4" cy="219.9" r="2.7" fill="#ea580c"/><circle cx="654.0" cy="161.1" r="2.7" fill="#ea580c"/><path d="M392.0 307.8 L466.6 283.5 L523.0 254.7 L579.4 218.6 L654.0 182.2 " fill="none" stroke="#64748b" stroke-width="2.2"/><circle cx="392.0" cy="307.8" r="2.7" fill="#64748b"/><circle cx="466.6" cy="283.5" r="2.7" fill="#64748b"/><circle cx="523.0" cy="254.7" r="2.7" fill="#64748b"/><circle cx="579.4" cy="218.6" r="2.7" fill="#64748b"/><circle cx="654.0" cy="182.2" r="2.7" fill="#64748b"/><text x="716.0" y="118" font-size="14" font-weight="700" fill="#0f172a">s3</text><line x1="716.0" y1="330.0" x2="978.0" y2="330.0" stroke="#eef2f7"/><text x="712.0" y="333.0" font-size="9" fill="#94a3b8" text-anchor="end">0%</text><line x1="716.0" y1="279.5" x2="978.0" y2="279.5" stroke="#eef2f7"/><text x="712.0" y="282.5" font-size="9" fill="#94a3b8" text-anchor="end">10%</text><line x1="716.0" y1="229.0" x2="978.0" y2="229.0" stroke="#eef2f7"/><text x="712.0" y="232.0" font-size="9" fill="#94a3b8" text-anchor="end">20%</text><line x1="716.0" y1="178.5" x2="978.0" y2="178.5" stroke="#eef2f7"/><text x="712.0" y="181.5" font-size="9" fill="#94a3b8" text-anchor="end">30%</text><line x1="716.0" y1="128.0" x2="978.0" y2="128.0" stroke="#eef2f7"/><text x="712.0" y="131.0" font-size="9" fill="#94a3b8" text-anchor="end">40%</text><text x="716.0" y="345.0" font-size="9" fill="#94a3b8" text-anchor="middle">1%</text><text x="790.6" y="345.0" font-size="9" fill="#94a3b8" text-anchor="middle">2.5%</text><text x="847.0" y="345.0" font-size="9" fill="#94a3b8" text-anchor="middle">5%</text><text x="903.4" y="345.0" font-size="9" fill="#94a3b8" text-anchor="middle">10%</text><text x="978.0" y="345.0" font-size="9" fill="#94a3b8" text-anchor="middle">25%</text><path d="M716.0 322.8 L790.6 301.9 L847.0 276.0 L903.4 231.8 L978.0 130.5 " fill="none" stroke="#16a34a" stroke-width="2.2"/><circle cx="716.0" cy="322.8" r="2.7" fill="#16a34a"/><circle cx="790.6" cy="301.9" r="2.7" fill="#16a34a"/><circle cx="847.0" cy="276.0" r="2.7" fill="#16a34a"/><circle cx="903.4" cy="231.8" r="2.7" fill="#16a34a"/><circle cx="978.0" cy="130.5" r="2.7" fill="#16a34a"/><path d="M716.0 321.1 L790.6 304.7 L847.0 278.4 L903.4 233.5 L978.0 129.6 " fill="none" stroke="#2563eb" stroke-width="2.2"/><circle cx="716.0" cy="321.1" r="2.7" fill="#2563eb"/><circle cx="790.6" cy="304.7" r="2.7" fill="#2563eb"/><circle cx="847.0" cy="278.4" r="2.7" fill="#2563eb"/><circle cx="903.4" cy="233.5" r="2.7" fill="#2563eb"/><circle cx="978.0" cy="129.6" r="2.7" fill="#2563eb"/><path d="M716.0 322.6 L790.6 312.1 L847.0 290.1 L903.4 252.6 L978.0 138.8 " fill="none" stroke="#ea580c" stroke-width="2.2"/><circle cx="716.0" cy="322.6" r="2.7" fill="#ea580c"/><circle cx="790.6" cy="312.1" r="2.7" fill="#ea580c"/><circle cx="847.0" cy="290.1" r="2.7" fill="#ea580c"/><circle cx="903.4" cy="252.6" r="2.7" fill="#ea580c"/><circle cx="978.0" cy="138.8" r="2.7" fill="#ea580c"/><path d="M716.0 321.9 L790.6 309.1 L847.0 287.9 L903.4 252.2 L978.0 191.9 " fill="none" stroke="#64748b" stroke-width="2.2"/><circle cx="716.0" cy="321.9" r="2.7" fill="#64748b"/><circle cx="790.6" cy="309.1" r="2.7" fill="#64748b"/><circle cx="847.0" cy="287.9" r="2.7" fill="#64748b"/><circle cx="903.4" cy="252.2" r="2.7" fill="#64748b"/><circle cx="978.0" cy="191.9" r="2.7" fill="#64748b"/><text x="68.0" y="380" font-size="14" font-weight="700" fill="#0f172a">ds1</text><line x1="68.0" y1="592.0" x2="330.0" y2="592.0" stroke="#eef2f7"/><text x="64.0" y="595.0" font-size="9" fill="#94a3b8" text-anchor="end">0%</text><line x1="68.0" y1="541.5" x2="330.0" y2="541.5" stroke="#eef2f7"/><text x="64.0" y="544.5" font-size="9" fill="#94a3b8" text-anchor="end">10%</text><line x1="68.0" y1="491.0" x2="330.0" y2="491.0" stroke="#eef2f7"/><text x="64.0" y="494.0" font-size="9" fill="#94a3b8" text-anchor="end">20%</text><line x1="68.0" y1="440.5" x2="330.0" y2="440.5" stroke="#eef2f7"/><text x="64.0" y="443.5" font-size="9" fill="#94a3b8" text-anchor="end">30%</text><line x1="68.0" y1="390.0" x2="330.0" y2="390.0" stroke="#eef2f7"/><text x="64.0" y="393.0" font-size="9" fill="#94a3b8" text-anchor="end">40%</text><text x="68.0" y="607.0" font-size="9" fill="#94a3b8" text-anchor="middle">1%</text><text x="142.6" y="607.0" font-size="9" fill="#94a3b8" text-anchor="middle">2.5%</text><text x="199.0" y="607.0" font-size="9" fill="#94a3b8" text-anchor="middle">5%</text><text x="255.4" y="607.0" font-size="9" fill="#94a3b8" text-anchor="middle">10%</text><text x="330.0" y="607.0" font-size="9" fill="#94a3b8" text-anchor="middle">25%</text><path d="M68.0 582.3 L142.6 569.7 L199.0 563.3 L255.4 535.4 L330.0 425.0 " fill="none" stroke="#16a34a" stroke-width="2.2"/><circle cx="68.0" cy="582.3" r="2.7" fill="#16a34a"/><circle cx="142.6" cy="569.7" r="2.7" fill="#16a34a"/><circle cx="199.0" cy="563.3" r="2.7" fill="#16a34a"/><circle cx="255.4" cy="535.4" r="2.7" fill="#16a34a"/><circle cx="330.0" cy="425.0" r="2.7" fill="#16a34a"/><path d="M68.0 584.8 L142.6 578.1 L199.0 561.2 L255.4 528.8 L330.0 464.6 " fill="none" stroke="#2563eb" stroke-width="2.2"/><circle cx="68.0" cy="584.8" r="2.7" fill="#2563eb"/><circle cx="142.6" cy="578.1" r="2.7" fill="#2563eb"/><circle cx="199.0" cy="561.2" r="2.7" fill="#2563eb"/><circle cx="255.4" cy="528.8" r="2.7" fill="#2563eb"/><circle cx="330.0" cy="464.6" r="2.7" fill="#2563eb"/><path d="M68.0 584.3 L142.6 579.0 L199.0 566.1 L255.4 534.3 L330.0 448.8 " fill="none" stroke="#ea580c" stroke-width="2.2"/><circle cx="68.0" cy="584.3" r="2.7" fill="#ea580c"/><circle cx="142.6" cy="579.0" r="2.7" fill="#ea580c"/><circle cx="199.0" cy="566.1" r="2.7" fill="#ea580c"/><circle cx="255.4" cy="534.3" r="2.7" fill="#ea580c"/><circle cx="330.0" cy="448.8" r="2.7" fill="#ea580c"/><path d="M68.0 584.5 L142.6 575.5 L199.0 564.4 L255.4 546.2 L330.0 536.1 " fill="none" stroke="#64748b" stroke-width="2.2"/><circle cx="68.0" cy="584.5" r="2.7" fill="#64748b"/><circle cx="142.6" cy="575.5" r="2.7" fill="#64748b"/><circle cx="199.0" cy="564.4" r="2.7" fill="#64748b"/><circle cx="255.4" cy="546.2" r="2.7" fill="#64748b"/><circle cx="330.0" cy="536.1" r="2.7" fill="#64748b"/><text x="392.0" y="380" font-size="14" font-weight="700" fill="#0f172a">oltp</text><line x1="392.0" y1="592.0" x2="654.0" y2="592.0" stroke="#eef2f7"/><text x="388.0" y="595.0" font-size="9" fill="#94a3b8" text-anchor="end">0%</text><line x1="392.0" y1="541.5" x2="654.0" y2="541.5" stroke="#eef2f7"/><text x="388.0" y="544.5" font-size="9" fill="#94a3b8" text-anchor="end">25%</text><line x1="392.0" y1="491.0" x2="654.0" y2="491.0" stroke="#eef2f7"/><text x="388.0" y="494.0" font-size="9" fill="#94a3b8" text-anchor="end">50%</text><line x1="392.0" y1="440.5" x2="654.0" y2="440.5" stroke="#eef2f7"/><text x="388.0" y="443.5" font-size="9" fill="#94a3b8" text-anchor="end">75%</text><line x1="392.0" y1="390.0" x2="654.0" y2="390.0" stroke="#eef2f7"/><text x="388.0" y="393.0" font-size="9" fill="#94a3b8" text-anchor="end">100%</text><text x="392.0" y="607.0" font-size="9" fill="#94a3b8" text-anchor="middle">1%</text><text x="466.6" y="607.0" font-size="9" fill="#94a3b8" text-anchor="middle">2.5%</text><text x="523.0" y="607.0" font-size="9" fill="#94a3b8" text-anchor="middle">5%</text><text x="579.4" y="607.0" font-size="9" fill="#94a3b8" text-anchor="middle">10%</text><text x="654.0" y="607.0" font-size="9" fill="#94a3b8" text-anchor="middle">25%</text><path d="M392.0 511.0 L466.6 491.1 L523.0 476.6 L579.4 463.7 L654.0 447.7 " fill="none" stroke="#16a34a" stroke-width="2.2"/><circle cx="392.0" cy="511.0" r="2.7" fill="#16a34a"/><circle cx="466.6" cy="491.1" r="2.7" fill="#16a34a"/><circle cx="523.0" cy="476.6" r="2.7" fill="#16a34a"/><circle cx="579.4" cy="463.7" r="2.7" fill="#16a34a"/><circle cx="654.0" cy="447.7" r="2.7" fill="#16a34a"/><path d="M392.0 502.8 L466.6 487.9 L523.0 477.9 L579.4 466.0 L654.0 449.1 " fill="none" stroke="#2563eb" stroke-width="2.2"/><circle cx="392.0" cy="502.8" r="2.7" fill="#2563eb"/><circle cx="466.6" cy="487.9" r="2.7" fill="#2563eb"/><circle cx="523.0" cy="477.9" r="2.7" fill="#2563eb"/><circle cx="579.4" cy="466.0" r="2.7" fill="#2563eb"/><circle cx="654.0" cy="449.1" r="2.7" fill="#2563eb"/><path d="M392.0 493.7 L466.6 479.5 L523.0 469.0 L579.4 459.8 L654.0 447.7 " fill="none" stroke="#ea580c" stroke-width="2.2"/><circle cx="392.0" cy="493.7" r="2.7" fill="#ea580c"/><circle cx="466.6" cy="479.5" r="2.7" fill="#ea580c"/><circle cx="523.0" cy="469.0" r="2.7" fill="#ea580c"/><circle cx="579.4" cy="459.8" r="2.7" fill="#ea580c"/><circle cx="654.0" cy="447.7" r="2.7" fill="#ea580c"/><path d="M392.0 547.1 L466.6 538.0 L523.0 538.0 L579.4 531.7 L654.0 530.7 " fill="none" stroke="#64748b" stroke-width="2.2"/><circle cx="392.0" cy="547.1" r="2.7" fill="#64748b"/><circle cx="466.6" cy="538.0" r="2.7" fill="#64748b"/><circle cx="523.0" cy="538.0" r="2.7" fill="#64748b"/><circle cx="579.4" cy="531.7" r="2.7" fill="#64748b"/><circle cx="654.0" cy="530.7" r="2.7" fill="#64748b"/></svg>