<svg xmlns="http://www.w3.org/2000/svg" width="1020" height="640" viewBox="0 0 1020 640" font-family="-apple-system,Segoe UI,Helvetica,Arial,sans-serif"><rect width="1020" height="640" fill="white"/><text x="24" y="30" font-size="20" font-weight="700" fill="#0f172a">Hit ratio vs cache size (multi-shard, same harness)</text><text x="24" y="50" font-size="13" fill="#64748b">x = cache size as % of the trace's unique keys (log scale). Each panel auto-scaled. Higher is better.</text><rect x="70" y="65" width="13" height="13" rx="2" fill="#16a34a"/><text x="88" y="76" font-size="13" fill="#334155">kioshun</text><rect x="150" y="65" width="13" height="13" rx="2" fill="#2563eb"/><text x="168" y="76" font-size="13" fill="#334155">theine</text><rect x="222" y="65" width="13" height="13" rx="2" fill="#ea580c"/><text x="240" y="76" font-size="13" fill="#334155">otter</text><rect x="286" y="65" width="13" height="13" rx="2" fill="#64748b"/><text x="304" y="76" font-size="13" fill="#334155">ristretto</text><text x="68.0" y="118" font-size="14" font-weight="700" fill="#0f172a">p3</text><line x1="68.0" y1="330.0" x2="330.0" y2="330.0" stroke="#eef2f7"/><text x="64.0" y="333.0" font-size="9" fill="#94a3b8" text-anchor="end">0%</text><line x1="68.0" y1="279.5" x2="330.0" y2="279.5" stroke="#eef2f7"/><text x="64.0" y="282.5" font-size="9" fill="#94a3b8" text-anchor="end">25%</text><line x1="68.0" y1="229.0" x2="330.0" y2="229.0" stroke="#eef2f7"/><text x="64.0" y="232.0" font-size="9" fill="#94a3b8" text-anchor="end">50%</text><line x1="68.0" y1="178.5" x2="330.0" y2="178.5" stroke="#eef2f7"/><text x="64.0" y="181.5" font-size="9" fill="#94a3b8" text-anchor="end">75%</text><line x1="68.0" y1="128.0" x2="330.0" y2="128.0" stroke="#eef2f7"/><text x="64.0" y="131.0" font-size="9" fill="#94a3b8" text-anchor="end">100%</text><text x="68.0" y="345.0" font-size="9" fill="#94a3b8" text-anchor="middle">1%</text><text x="142.6" y="345.0" font-size="9" fill="#94a3b8" text-anchor="middle">2.5%</text><text x="199.0" y="345.0" font-size="9" fill="#94a3b8" text-anchor="middle">5%</text><text x="255.4" y="345.0" font-size="9" fill="#94a3b8" text-anchor="middle">10%</text><text x="330.0" y="345.0" font-size="9" fill="#94a3b8" text-anchor="middle">25%</text><path d="M68.0 323.9 L142.6 313.1 L199.0 292.3 L255.4 260.4 L330.0 211.4 " fill="none" stroke="#16a34a" stroke-width="2.2"/><circle cx="68.0" cy="323.9" r="2.7" fill="#16a34a"/><circle cx="142.6" cy="313.1" r="2.7" fill="#16a34a"/><circle cx="199.0" cy="292.3" r="2.7" fill="#16a34a"/><circle cx="255.4" cy="260.4" r="2.7" fill="#16a34a"/><circle cx="330.0" cy="211.4" r="2.7" fill="#16a34a"/><path d="M68.0 323.0 L142.6 307.9 L199.0 293.4 L255.4 264.1 L330.0 219.2 " fill="none" stroke="#2563eb" stroke-width="2.2"/><circle cx="68.0" cy="323.0" r="2.7" fill="#2563eb"/><circle cx="142.6" cy="307.9" r="2.7" fill="#2563eb"/><circle cx="199.0" cy="293.4" r="2.7" fill="#2563eb"/><circle cx="255.4" cy="264.1" r="2.7" fill="#2563eb"/><circle cx="330.0" cy="219.2" r="2.7" fill="#2563eb"/><path d="M68.0 323.1 L142.6 311.1 L199.0 293.6 L255.4 265.1 L330.0 226.4 " fill="none" stroke="#ea580c" stroke-width="2.2"/><circle cx="68.0" cy="323.1" r="2.7" fill="#ea580c"/><circle cx="142.6" cy="311.1" r="2.7" fill="#ea580c"/><circle cx="199.0" cy="293.6" r="2.7" fill="#ea580c"/><circle cx="255.4" cy="265.1" r="2.7" fill="#ea580c"/><circle cx="330.0" cy="226.4" r="2.7" fill="#ea580c"/><path d="M68.0 324.1 L142.6 315.8 L199.0 306.0 L255.4 292.6 L330.0 289.4 " fill="none" stroke="#64748b" stroke-width="2.2"/><circle cx="68.0" cy="324.1" r="2.7" fill="#64748b"/><circle cx="142.6" cy="315.8" r="2.7" fill="#64748b"/><circle cx="199.0" cy="306.0" r="2.7" fill="#64748b"/><circle cx="255.4" cy="292.6" r="2.7" fill="#64748b"/><circle cx="330.0" cy="289.4" r="2.7" fill="#64748b"/><text x="392.0" y="118" font-size="14" font-weight="700" fill="#0f172a">p8</text><line x1="392.0" y1="330.0" x2="654.0" y2="330.0" stroke="#eef2f7"/><text x="388.0" y="333.0" font-size="9" fill="#94a3b8" text-anchor="end">0%</text><line x1="392.0" y1="279.5" x2="654.0" y2="279.5" stroke="#eef2f7"/><text x="388.0" y="282.5" font-size="9" fill="#94a3b8" text-anchor="end">25%</text><line x1="392.0" y1="229.0" x2="654.0" y2="229.0" stroke="#eef2f7"/><text x="388.0" y="232.0" font-size="9" fill="#94a3b8" text-anchor="end">50%</text><line x1="392.0" y1="178.5" x2="654.0" y2="178.5" stroke="#eef2f7"/><text x="388.0" y="181.5" font-size="9" fill="#94a3b8" text-anchor="end">75%</text><line x1="392.0" y1="128.0" x2="654.0" y2="128.0" stroke="#eef2f7"/><text x="388.0" y="131.0" font-size="9" fill="#94a3b8" text-anchor="end">100%</text><text x="392.0" y="345.0" font-size="9" fill="#94a3b8" text-anchor="middle">1%</text><text x="466.6" y="345.0" font-size="9" fill="#94a3b8" text-anchor="middle">2.5%</text><text x="523.0" y="345.0" font-size="9" fill="#94a3b8" text-anchor="middle">5%</text><text x="579.4" y="345.0" font-size="9" fill="#94a3b8" text-anchor="middle">10%</text><text x="654.0" y="345.0" font-size="9" fill="#94a3b8" text-anchor="middle">25%</text><path d="M392.0 315.9 L466.6 281.6 L523.0 251.5 L579.4 211.4 L654.0 154.7 " fill="none" stroke="#16a34a" stroke-width="2.2"/><circle cx="392.0" cy="315.9" r="2.7" fill="#16a34a"/><circle cx="466.6" cy="281.6" r="2.7" fill="#16a34a"/><circle cx="523.0" cy="251.5" r="2.7" fill="#16a34a"/><circle cx="579.4" cy="211.4" r="2.7" fill="#16a34a"/><circle cx="654.0" cy="154.7" r="2.7" fill="#16a34a"/><path d="M392.0 307.2 L466.6 283.9 L523.0 269.2 L579.4 222.4 L654.0 160.0 " fill="none" stroke="#2563eb" stroke-width="2.2"/><circle cx="392.0" cy="307.2" r="2.7" fill="#2563eb"/><circle cx="466.6" cy="283.9" r="2.7" fill="#2563eb"/><circle cx="523.0" cy="269.2" r="2.7" fill="#2563eb"/><circle cx="579.4" cy="222.4" r="2.7" fill="#2563eb"/><circle cx="654.0" cy="160.0" r="2.7" fill="#2563eb"/><path d="M392.0 308.4 L466.6 289.1 L523.0 257.1 L579.4 218.3 L654.0 160.0 " fill="none" stroke="#ea580c" stroke-width="2.2"/><circle cx="392.0" cy="308.4" r="2.7" fill="#ea580c"/><circle cx="466.6" cy="289.1" r="2.7" fill="#ea580c"/><circle cx="523.0" cy="257.1" r="2.7" fill="#ea580c"/><circle cx="579.4" cy="218.3" r="2.7" fill="#ea580c"/><circle cx="654.0" cy="160.0" r="2.7" fill="#ea580c"/><path d="M392.0 307.9 L466.6 284.1 L523.0 254.4 L579.4 218.6 L654.0 181.2 " fill="none" stroke="#64748b" stroke-width="2.2"/><circle cx="392.0" cy="307.9" r="2.7" fill="#64748b"/><circle cx="466.6" cy="284.1" r="2.7" fill="#64748b"/><circle cx="523.0" cy="254.4" r="2.7" fill="#64748b"/><circle cx="579.4" cy="218.6" r="2.7" fill="#64748b"/><circle cx="654.0" cy="181.2" r="2.7" fill="#64748b"/><text x="716.0" y="118" font-size="14" font-weight="700" fill="#0f172a">s3</text><line x1="716.0" y1="330.0" x2="978.0" y2="330.0" stroke="#eef2f7"/><text x="712.0" y="333.0" font-size="9" fill="#94a3b8" text-anchor="end">0%</text><line x1="716.0" y1="279.5" x2="978.0" y2="279.5" stroke="#eef2f7"/><text x="712.0" y="282.5" font-size="9" fill="#94a3b8" text-anchor="end">10%</text><line x1="716.0" y1="229.0" x2="978.0" y2="229.0" stroke="#eef2f7"/><text x="712.0" y="232.0" font-size="9" fill="#94a3b8" text-anchor="end">20%</text><line x1="716.0" y1="178.5" x2="978.0" y2="178.5" stroke="#eef2f7"/><text x="712.0" y="181.5" font-size="9" fill="#94a3b8" text-anchor="end">30%</text><line x1="716.0" y1="128.0" x2="978.0" y2="128.0" stroke="#eef2f7"/><text x="712.0" y="131.0" font-size="9" fill="#94a3b8" text-anchor="end">40%</text><text x="716.0" y="345.0" font-size="9" fill="#94a3b8" text-anchor="middle">1%</text><text x="790.6" y="345.0" font-size="9" fill="#94a3b8" text-anchor="middle">2.5%</text><text x="847.0" y="345.0" font-size="9" fill="#94a3b8" text-anchor="middle">5%</text><text x="903.4" y="345.0" font-size="9" fill="#94a3b8" text-anchor="middle">10%</text><text x="978.0" y="345.0" font-size="9" fill="#94a3b8" text-anchor="middle">25%</text><path d="M716.0 322.8 L790.6 302.0 L847.0 275.9 L903.4 231.7 L978.0 130.9 " fill="none" stroke="#16a34a" stroke-width="2.2"/><circle cx="716.0" cy="322.8" r="2.7" fill="#16a34a"/><circle cx="790.6" cy="302.0" r="2.7" fill="#16a34a"/><circle cx="847.0" cy="275.9" r="2.7" fill="#16a34a"/><circle cx="903.4" cy="231.7" r="2.7" fill="#16a34a"/><circle cx="978.0" cy="130.9" r="2.7" fill="#16a34a"/><path d="M716.0 320.8 L790.6 306.3 L847.0 278.1 L903.4 233.3 L978.0 131.4 " fill="none" stroke="#2563eb" stroke-width="2.2"/><circle cx="716.0" cy="320.8" r="2.7" fill="#2563eb"/><circle cx="790.6" cy="306.3" r="2.7" fill="#2563eb"/><circle cx="847.0" cy="278.1" r="2.7" fill="#2563eb"/><circle cx="903.4" cy="233.3" r="2.7" fill="#2563eb"/><circle cx="978.0" cy="131.4" r="2.7" fill="#2563eb"/><path d="M716.0 323.4 L790.6 311.5 L847.0 289.4 L903.4 251.8 L978.0 138.8 " fill="none" stroke="#ea580c" stroke-width="2.2"/><circle cx="716.0" cy="323.4" r="2.7" fill="#ea580c"/><circle cx="790.6" cy="311.5" r="2.7" fill="#ea580c"/><circle cx="847.0" cy="289.4" r="2.7" fill="#ea580c"/><circle cx="903.4" cy="251.8" r="2.7" fill="#ea580c"/><circle cx="978.0" cy="138.8" r="2.7" fill="#ea580c"/><path d="M716.0 321.9 L790.6 309.1 L847.0 288.0 L903.4 252.9 L978.0 197.7 " fill="none" stroke="#64748b" stroke-width="2.2"/><circle cx="716.0" cy="321.9" r="2.7" fill="#64748b"/><circle cx="790.6" cy="309.1" r="2.7" fill="#64748b"/><circle cx="847.0" cy="288.0" r="2.7" fill="#64748b"/><circle cx="903.4" cy="252.9" r="2.7" fill="#64748b"/><circle cx="978.0" cy="197.7" r="2.7" fill="#64748b"/><text x="68.0" y="380" font-size="14" font-weight="700" fill="#0f172a">ds1</text><line x1="68.0" y1="592.0" x2="330.0" y2="592.0" stroke="#eef2f7"/><text x="64.0" y="595.0" font-size="9" fill="#94a3b8" text-anchor="end">0%</text><line x1="68.0" y1="541.5" x2="330.0" y2="541.5" stroke="#eef2f7"/><text x="64.0" y="544.5" font-size="9" fill="#94a3b8" text-anchor="end">10%</text><line x1="68.0" y1="491.0" x2="330.0" y2="491.0" stroke="#eef2f7"/><text x="64.0" y="494.0" font-size="9" fill="#94a3b8" text-anchor="end">20%</text><line x1="68.0" y1="440.5" x2="330.0" y2="440.5" stroke="#eef2f7"/><text x="64.0" y="443.5" font-size="9" fill="#94a3b8" text-anchor="end">30%</text><line x1="68.0" y1="390.0" x2="330.0" y2="390.0" stroke="#eef2f7"/><text x="64.0" y="393.0" font-size="9" fill="#94a3b8" text-anchor="end">40%</text><text x="68.0" y="607.0" font-size="9" fill="#94a3b8" text-anchor="middle">1%</text><text x="142.6" y="607.0" font-size="9" fill="#94a3b8" text-anchor="middle">2.5%</text><text x="199.0" y="607.0" font-size="9" fill="#94a3b8" text-anchor="middle">5%</text><text x="255.4" y="607.0" font-size="9" fill="#94a3b8" text-anchor="middle">10%</text><text x="330.0" y="607.0" font-size="9" fill="#94a3b8" text-anchor="middle">25%</text><path d="M68.0 582.3 L142.6 569.6 L199.0 563.3 L255.4 535.6 L330.0 423.5 " fill="none" stroke="#16a34a" stroke-width="2.2"/><circle cx="68.0" cy="582.3" r="2.7" fill="#16a34a"/><circle cx="142.6" cy="569.6" r="2.7" fill="#16a34a"/><circle cx="199.0" cy="563.3" r="2.7" fill="#16a34a"/><circle cx="255.4" cy="535.6" r="2.7" fill="#16a34a"/><circle cx="330.0" cy="423.5" r="2.7" fill="#16a34a"/><path d="M68.0 583.9 L142.6 577.7 L199.0 559.5 L255.4 524.5 L330.0 453.5 " fill="none" stroke="#2563eb" stroke-width="2.2"/><circle cx="68.0" cy="583.9" r="2.7" fill="#2563eb"/><circle cx="142.6" cy="577.7" r="2.7" fill="#2563eb"/><circle cx="199.0" cy="559.5" r="2.7" fill="#2563eb"/><circle cx="255.4" cy="524.5" r="2.7" fill="#2563eb"/><circle cx="330.0" cy="453.5" r="2.7" fill="#2563eb"/><path d="M68.0 584.0 L142.6 579.1 L199.0 566.8 L255.4 533.8 L330.0 446.7 " fill="none" stroke="#ea580c" stroke-width="2.2"/><circle cx="68.0" cy="584.0" r="2.7" fill="#ea580c"/><circle cx="142.6" cy="579.1" r="2.7" fill="#ea580c"/><circle cx="199.0" cy="566.8" r="2.7" fill="#ea580c"/><circle cx="255.4" cy="533.8" r="2.7" fill="#ea580c"/><circle cx="330.0" cy="446.7" r="2.7" fill="#ea580c"/><path d="M68.0 584.7 L142.6 575.4 L199.0 564.2 L255.4 549.2 L330.0 526.4 " fill="none" stroke="#64748b" stroke-width="2.2"/><circle cx="68.0" cy="584.7" r="2.7" fill="#64748b"/><circle cx="142.6" cy="575.4" r="2.7" fill="#64748b"/><circle cx="199.0" cy="564.2" r="2.7" fill="#64748b"/><circle cx="255.4" cy="549.2" r="2.7" fill="#64748b"/><circle cx="330.0" cy="526.4" r="2.7" fill="#64748b"/><text x="392.0" y="380" font-size="14" font-weight="700" fill="#0f172a">oltp</text><line x1="392.0" y1="592.0" x2="654.0" y2="592.0" stroke="#eef2f7"/><text x="388.0" y="595.0" font-size="9" fill="#94a3b8" text-anchor="end">0%</text><line x1="392.0" y1="541.5" x2="654.0" y2="541.5" stroke="#eef2f7"/><text x="388.0" y="544.5" font-size="9" fill="#94a3b8" text-anchor="end">25%</text><line x1="392.0" y1="491.0" x2="654.0" y2="491.0" stroke="#eef2f7"/><text x="388.0" y="494.0" font-size="9" fill="#94a3b8" text-anchor="end">50%</text><line x1="392.0" y1="440.5" x2="654.0" y2="440.5" stroke="#eef2f7"/><text x="388.0" y="443.5" font-size="9" fill="#94a3b8" text-anchor="end">75%</text><line x1="392.0" y1="390.0" x2="654.0" y2="390.0" stroke="#eef2f7"/><text x="388.0" y="393.0" font-size="9" fill="#94a3b8" text-anchor="end">100%</text><text x="392.0" y="607.0" font-size="9" fill="#94a3b8" text-anchor="middle">1%</text><text x="466.6" y="607.0" font-size="9" fill="#94a3b8" text-anchor="middle">2.5%</text><text x="523.0" y="607.0" font-size="9" fill="#94a3b8" text-anchor="middle">5%</text><text x="579.4" y="607.0" font-size="9" fill="#94a3b8" text-anchor="middle">10%</text><text x="654.0" y="607.0" font-size="9" fill="#94a3b8" text-anchor="middle">25%</text><path d="M392.0 511.4 L466.6 491.1 L523.0 476.2 L579.4 463.6 L654.0 447.5 " fill="none" stroke="#16a34a" stroke-width="2.2"/><circle cx="392.0" cy="511.4" r="2.7" fill="#16a34a"/><circle cx="466.6" cy="491.1" r="2.7" fill="#16a34a"/><circle cx="523.0" cy="476.2" r="2.7" fill="#16a34a"/><circle cx="579.4" cy="463.6" r="2.7" fill="#16a34a"/><circle cx="654.0" cy="447.5" r="2.7" fill="#16a34a"/><path d="M392.0 503.7 L466.6 488.0 L523.0 478.2 L579.4 465.8 L654.0 449.3 " fill="none" stroke="#2563eb" stroke-width="2.2"/><circle cx="392.0" cy="503.7" r="2.7" fill="#2563eb"/><circle cx="466.6" cy="488.0" r="2.7" fill="#2563eb"/><circle cx="523.0" cy="478.2" r="2.7" fill="#2563eb"/><circle cx="579.4" cy="465.8" r="2.7" fill="#2563eb"/><circle cx="654.0" cy="449.3" r="2.7" fill="#2563eb"/><path d="M392.0 494.3 L466.6 479.4 L523.0 469.9 L579.4 459.6 L654.0 448.2 " fill="none" stroke="#ea580c" stroke-width="2.2"/><circle cx="392.0" cy="494.3" r="2.7" fill="#ea580c"/><circle cx="466.6" cy="479.4" r="2.7" fill="#ea580c"/><circle cx="523.0" cy="469.9" r="2.7" fill="#ea580c"/><circle cx="579.4" cy="459.6" r="2.7" fill="#ea580c"/><circle cx="654.0" cy="448.2" r="2.7" fill="#ea580c"/><path d="M392.0 547.4 L466.6 539.4 L523.0 534.4 L579.4 531.2 L654.0 531.4 " fill="none" stroke="#64748b" stroke-width="2.2"/><circle cx="392.0" cy="547.4" r="2.7" fill="#64748b"/><circle cx="466.6" cy="539.4" r="2.7" fill="#64748b"/><circle cx="523.0" cy="534.4" r="2.7" fill="#64748b"/><circle cx="579.4" cy="531.2" r="2.7" fill="#64748b"/><circle cx="654.0" cy="531.4" r="2.7" fill="#64748b"/></svg>