<svg xmlns="http://www.w3.org/2000/svg" width="940" height="480" viewBox="0 0 940 480" font-family="-apple-system,Segoe UI,Helvetica,Arial,sans-serif"><rect width="940" height="480" fill="white"/><text x="24" y="30" font-size="20" font-weight="700" fill="#0f172a">Hit ratio achieved (% of the Belady optimum)</text><text x="24" y="50" font-size="13" fill="#64748b">Higher is better. 100% = the theoretical maximum for that trace. Multi-shard, cap 100k, same harness.</text><rect x="70" y="67" width="13" height="13" rx="2" fill="#16a34a"/><text x="88" y="78" font-size="13" fill="#334155">kioshun</text><rect x="150" y="67" width="13" height="13" rx="2" fill="#2563eb"/><text x="168" y="78" font-size="13" fill="#334155">theine</text><rect x="222" y="67" width="13" height="13" rx="2" fill="#ea580c"/><text x="240" y="78" font-size="13" fill="#334155">otter</text><rect x="286" y="67" width="13" height="13" rx="2" fill="#64748b"/><text x="304" y="78" font-size="13" fill="#334155">ristretto</text><line x1="70" y1="402.0" x2="916" y2="402.0" stroke="#eef2f7"/><text x="62" y="406.0" font-size="11" fill="#94a3b8" text-anchor="end">0%</text><line x1="70" y1="340.8" x2="916" y2="340.8" stroke="#eef2f7"/><text x="62" y="344.8" font-size="11" fill="#94a3b8" text-anchor="end">20%</text><line x1="70" y1="279.6" x2="916" y2="279.6" stroke="#eef2f7"/><text x="62" y="283.6" font-size="11" fill="#94a3b8" text-anchor="end">40%</text><line x1="70" y1="218.4" x2="916" y2="218.4" stroke="#eef2f7"/><text x="62" y="222.4" font-size="11" fill="#94a3b8" text-anchor="end">60%</text><line x1="70" y1="157.2" x2="916" y2="157.2" stroke="#eef2f7"/><text x="62" y="161.2" font-size="11" fill="#94a3b8" text-anchor="end">80%</text><line x1="70" y1="96.0" x2="916" y2="96.0" stroke="#eef2f7"/><text x="62" y="100.0" font-size="11" fill="#94a3b8" text-anchor="end">100%</text><rect x="85.5" y="185.5" width="25.5" height="216.5" rx="2" fill="#16a34a"/><text x="98.3" y="182.5" font-size="9.5" fill="#475569" text-anchor="middle">71</text><rect x="113.0" y="216.4" width="25.5" height="185.6" rx="2" fill="#2563eb"/><text x="125.8" y="213.4" font-size="9.5" fill="#475569" text-anchor="middle">61</text><rect x="140.5" y="222.4" width="25.5" height="179.6" rx="2" fill="#ea580c"/><text x="153.2" y="219.4" font-size="9.5" fill="#475569" text-anchor="middle">59</text><rect x="168.0" y="309.5" width="25.5" height="92.5" rx="2" fill="#64748b"/><text x="180.7" y="306.5" font-size="9.5" fill="#475569" text-anchor="middle">30</text><text x="140.5" y="424" font-size="13" font-weight="600" fill="#0f172a" text-anchor="middle">p3</text><rect x="226.5" y="165.2" width="25.5" height="236.8" rx="2" fill="#16a34a"/><text x="239.3" y="162.2" font-size="9.5" fill="#475569" text-anchor="middle">77</text><rect x="254.0" y="187.9" width="25.5" height="214.1" rx="2" fill="#2563eb"/><text x="266.8" y="184.9" font-size="9.5" fill="#475569" text-anchor="middle">70</text><rect x="281.5" y="177.0" width="25.5" height="225.0" rx="2" fill="#ea580c"/><text x="294.2" y="174.0" font-size="9.5" fill="#475569" text-anchor="middle">74</text><rect x="309.0" y="181.3" width="25.5" height="220.7" rx="2" fill="#64748b"/><text x="321.7" y="178.3" font-size="9.5" fill="#475569" text-anchor="middle">72</text><text x="281.5" y="424" font-size="13" font-weight="600" fill="#0f172a" text-anchor="middle">p8</text><rect x="367.5" y="252.1" width="25.5" height="149.9" rx="2" fill="#16a34a"/><text x="380.3" y="249.1" font-size="9.5" fill="#475569" text-anchor="middle">49</text><rect x="395.0" y="261.3" width="25.5" height="140.7" rx="2" fill="#2563eb"/><text x="407.8" y="258.3" font-size="9.5" fill="#475569" text-anchor="middle">46</text><rect x="422.5" y="292.0" width="25.5" height="110.0" rx="2" fill="#ea580c"/><text x="435.2" y="289.0" font-size="9.5" fill="#475569" text-anchor="middle">36</text><rect x="450.0" y="282.1" width="25.5" height="119.9" rx="2" fill="#64748b"/><text x="462.7" y="279.1" font-size="9.5" fill="#475569" text-anchor="middle">39</text><text x="422.5" y="424" font-size="13" font-weight="600" fill="#0f172a" text-anchor="middle">s3</text><rect x="508.5" y="291.1" width="25.5" height="110.9" rx="2" fill="#16a34a"/><text x="521.3" y="288.1" font-size="9.5" fill="#475569" text-anchor="middle">36</text><rect x="536.0" y="317.8" width="25.5" height="84.2" rx="2" fill="#2563eb"/><text x="548.8" y="314.8" font-size="9.5" fill="#475569" text-anchor="middle">28</text><rect x="563.5" y="314.8" width="25.5" height="87.2" rx="2" fill="#ea580c"/><text x="576.2" y="311.8" font-size="9.5" fill="#475569" text-anchor="middle">28</text><rect x="591.0" y="317.8" width="25.5" height="84.2" rx="2" fill="#64748b"/><text x="603.7" y="314.8" font-size="9.5" fill="#475569" text-anchor="middle">28</text><text x="563.5" y="424" font-size="13" font-weight="600" fill="#0f172a" text-anchor="middle">ds1</text><rect x="649.5" y="100.9" width="25.5" height="301.1" rx="2" fill="#16a34a"/><text x="662.3" y="97.9" font-size="9.5" fill="#475569" text-anchor="middle">98</text><rect x="677.0" y="107.2" width="25.5" height="294.8" rx="2" fill="#2563eb"/><text x="689.8" y="104.2" font-size="9.5" fill="#475569" text-anchor="middle">96</text><rect x="704.5" y="108.0" width="25.5" height="294.0" rx="2" fill="#ea580c"/><text x="717.2" y="105.0" font-size="9.5" fill="#475569" text-anchor="middle">96</text><rect x="732.0" y="291.7" width="25.5" height="110.3" rx="2" fill="#64748b"/><text x="744.7" y="288.7" font-size="9.5" fill="#475569" text-anchor="middle">36</text><text x="704.5" y="424" font-size="13" font-weight="600" fill="#0f172a" text-anchor="middle">oltp</text><rect x="790.5" y="98.5" width="25.5" height="303.5" rx="2" fill="#16a34a"/><text x="803.3" y="95.5" font-size="9.5" fill="#475569" text-anchor="middle">99</text><rect x="818.0" y="96.0" width="25.5" height="306.0" rx="2" fill="#2563eb"/><text x="830.8" y="93.0" font-size="9.5" fill="#475569" text-anchor="middle">100</text><rect x="845.5" y="96.6" width="25.5" height="305.4" rx="2" fill="#ea580c"/><text x="858.2" y="93.6" font-size="9.5" fill="#475569" text-anchor="middle">100</text><rect x="873.0" y="169.2" width="25.5" height="232.8" rx="2" fill="#64748b"/><text x="885.7" y="166.2" font-size="9.5" fill="#475569" text-anchor="middle">76</text><text x="845.5" y="424" font-size="13" font-weight="600" fill="#0f172a" text-anchor="middle">loop</text></svg>