<svg xmlns="http://www.w3.org/2000/svg" width="760" height="520" viewBox="0 0 760 520" font-family="-apple-system,Segoe UI,Helvetica,Arial,sans-serif"><rect width="760" height="520" fill="white"/><text x="24" y="30" font-size="20" font-weight="700" fill="#0f172a">hit ratio vs throughput</text><text x="24" y="50" font-size="13" fill="#64748b">Average over the 5 real traces. Top-right = best of both. (kioshun)</text><line x1="70.0" y1="70" x2="70.0" y2="456.0" stroke="#eef2f7"/><text x="70.0" y="474.0" font-size="11" fill="#94a3b8" text-anchor="middle">0%</text><line x1="202.0" y1="70" x2="202.0" y2="456.0" stroke="#eef2f7"/><text x="202.0" y="474.0" font-size="11" fill="#94a3b8" text-anchor="middle">20%</text><line x1="334.0" y1="70" x2="334.0" y2="456.0" stroke="#eef2f7"/><text x="334.0" y="474.0" font-size="11" fill="#94a3b8" text-anchor="middle">40%</text><line x1="466.0" y1="70" x2="466.0" y2="456.0" stroke="#eef2f7"/><text x="466.0" y="474.0" font-size="11" fill="#94a3b8" text-anchor="middle">60%</text><line x1="598.0" y1="70" x2="598.0" y2="456.0" stroke="#eef2f7"/><text x="598.0" y="474.0" font-size="11" fill="#94a3b8" text-anchor="middle">80%</text><line x1="730.0" y1="70" x2="730.0" y2="456.0" stroke="#eef2f7"/><text x="730.0" y="474.0" font-size="11" fill="#94a3b8" text-anchor="middle">100%</text><line x1="70" y1="456.0" x2="730" y2="456.0" stroke="#eef2f7"/><text x="62" y="460.0" font-size="11" fill="#94a3b8" text-anchor="end">0</text><line x1="70" y1="378.8" x2="730" y2="378.8" stroke="#eef2f7"/><text x="62" y="382.8" font-size="11" fill="#94a3b8" text-anchor="end">4</text><line x1="70" y1="301.6" x2="730" y2="301.6" stroke="#eef2f7"/><text x="62" y="305.6" font-size="11" fill="#94a3b8" text-anchor="end">8</text><line x1="70" y1="224.4" x2="730" y2="224.4" stroke="#eef2f7"/><text x="62" y="228.4" font-size="11" fill="#94a3b8" text-anchor="end">12</text><line x1="70" y1="147.2" x2="730" y2="147.2" stroke="#eef2f7"/><text x="62" y="151.2" font-size="11" fill="#94a3b8" text-anchor="end">16</text><line x1="70" y1="70.0" x2="730" y2="70.0" stroke="#eef2f7"/><text x="62" y="74.0" font-size="11" fill="#94a3b8" text-anchor="end">20</text><text x="400.0" y="502" font-size="12" fill="#64748b" text-anchor="middle">hit ratio (% of Belady optimum) &#8594;</text><text transform="translate(20,263.0) rotate(-90)" font-size="12" fill="#64748b" text-anchor="middle">throughput (Mops/s) &#8594;</text><circle cx="507.9" cy="127.5" r="12.0" fill="#16a34a" fill-opacity="0.9" stroke="white" stroke-width="2"/><text x="521.9" y="132.5" font-size="13" font-weight="800" fill="#16a34a">kioshun</text><circle cx="456.4" cy="298.9" r="9.0" fill="#ea580c" fill-opacity="0.9" stroke="white" stroke-width="2"/><text x="470.4" y="303.9" font-size="13" font-weight="600" fill="#ea580c">otter</text><circle cx="340.7" cy="171.8" r="9.0" fill="#64748b" fill-opacity="0.9" stroke="white" stroke-width="2"/><text x="354.7" y="176.8" font-size="13" font-weight="600" fill="#64748b">ristretto</text><circle cx="466.6" cy="387.3" r="9.0" fill="#2563eb" fill-opacity="0.9" stroke="white" stroke-width="2"/><text x="480.6" y="392.3" font-size="13" font-weight="600" fill="#2563eb">theine</text></svg>