<svg xmlns="http://www.w3.org/2000/svg" width="940" height="480" viewBox="0 0 940 480" font-family="-apple-system,Segoe UI,Helvetica,Arial,sans-serif"><rect width="940" height="480" fill="white"/><text x="24" y="30" font-size="20" font-weight="700" fill="#0f172a">Throughput (million ops/sec, higher is better)</text><text x="24" y="50" font-size="13" fill="#64748b">Multi-shard, cap 100k, same harness. loop omitted (micro working set). Note: ristretto trades hit ratio for speed.</text><rect x="70" y="67" width="13" height="13" rx="2" fill="#16a34a"/><text x="88" y="78" font-size="13" fill="#334155">kioshun</text><rect x="150" y="67" width="13" height="13" rx="2" fill="#2563eb"/><text x="168" y="78" font-size="13" fill="#334155">theine</text><rect x="222" y="67" width="13" height="13" rx="2" fill="#ea580c"/><text x="240" y="78" font-size="13" fill="#334155">otter</text><rect x="286" y="67" width="13" height="13" rx="2" fill="#64748b"/><text x="304" y="78" font-size="13" fill="#334155">ristretto</text><line x1="70" y1="402.0" x2="916" y2="402.0" stroke="#eef2f7"/><text x="62" y="406.0" font-size="11" fill="#94a3b8" text-anchor="end">0</text><line x1="70" y1="340.8" x2="916" y2="340.8" stroke="#eef2f7"/><text x="62" y="344.8" font-size="11" fill="#94a3b8" text-anchor="end">6</text><line x1="70" y1="279.6" x2="916" y2="279.6" stroke="#eef2f7"/><text x="62" y="283.6" font-size="11" fill="#94a3b8" text-anchor="end">12</text><line x1="70" y1="218.4" x2="916" y2="218.4" stroke="#eef2f7"/><text x="62" y="222.4" font-size="11" fill="#94a3b8" text-anchor="end">18</text><line x1="70" y1="157.2" x2="916" y2="157.2" stroke="#eef2f7"/><text x="62" y="161.2" font-size="11" fill="#94a3b8" text-anchor="end">24</text><line x1="70" y1="96.0" x2="916" y2="96.0" stroke="#eef2f7"/><text x="62" y="100.0" font-size="11" fill="#94a3b8" text-anchor="end">30</text><rect x="88.6" y="256.1" width="31.0" height="145.9" rx="2" fill="#16a34a"/><text x="104.1" y="253.1" font-size="9.5" fill="#475569" text-anchor="middle">14</text><rect x="121.6" y="375.7" width="31.0" height="26.3" rx="2" fill="#2563eb"/><text x="137.1" y="372.7" font-size="9.5" fill="#475569" text-anchor="middle">3</text><rect x="154.6" y="344.3" width="31.0" height="57.7" rx="2" fill="#ea580c"/><text x="170.1" y="341.3" font-size="9.5" fill="#475569" text-anchor="middle">6</text><rect x="187.6" y="289.3" width="31.0" height="112.7" rx="2" fill="#64748b"/><text x="203.1" y="286.3" font-size="9.5" fill="#475569" text-anchor="middle">11</text><text x="154.6" y="424" font-size="13" font-weight="600" fill="#0f172a" text-anchor="middle">p3</text><rect x="257.8" y="237.9" width="31.0" height="164.1" rx="2" fill="#16a34a"/><text x="273.3" y="234.9" font-size="9.5" fill="#475569" text-anchor="middle">16</text><rect x="290.8" y="363.1" width="31.0" height="38.9" rx="2" fill="#2563eb"/><text x="306.3" y="360.1" font-size="9.5" fill="#475569" text-anchor="middle">4</text><rect x="323.8" y="295.3" width="31.0" height="106.7" rx="2" fill="#ea580c"/><text x="339.3" y="292.3" font-size="9.5" fill="#475569" text-anchor="middle">10</text><rect x="356.8" y="145.0" width="31.0" height="257.0" rx="2" fill="#64748b"/><text x="372.3" y="142.0" font-size="9.5" fill="#475569" text-anchor="middle">25</text><text x="323.8" y="424" font-size="13" font-weight="600" fill="#0f172a" text-anchor="middle">p8</text><rect x="427.0" y="263.5" width="31.0" height="138.5" rx="2" fill="#16a34a"/><text x="442.5" y="260.5" font-size="9.5" fill="#475569" text-anchor="middle">14</text><rect x="460.0" y="376.3" width="31.0" height="25.7" rx="2" fill="#2563eb"/><text x="475.5" y="373.3" font-size="9.5" fill="#475569" text-anchor="middle">3</text><rect x="493.0" y="346.0" width="31.0" height="56.0" rx="2" fill="#ea580c"/><text x="508.5" y="343.0" font-size="9.5" fill="#475569" text-anchor="middle">5</text><rect x="526.0" y="298.1" width="31.0" height="103.9" rx="2" fill="#64748b"/><text x="541.5" y="295.1" font-size="9.5" fill="#475569" text-anchor="middle">10</text><text x="493.0" y="424" font-size="13" font-weight="600" fill="#0f172a" text-anchor="middle">s3</text><rect x="596.2" y="286.2" width="31.0" height="115.8" rx="2" fill="#16a34a"/><text x="611.7" y="283.2" font-size="9.5" fill="#475569" text-anchor="middle">11</text><rect x="629.2" y="380.1" width="31.0" height="21.9" rx="2" fill="#2563eb"/><text x="644.7" y="377.1" font-size="9.5" fill="#475569" text-anchor="middle">2</text><rect x="662.2" y="345.6" width="31.0" height="56.4" rx="2" fill="#ea580c"/><text x="677.7" y="342.6" font-size="9.5" fill="#475569" text-anchor="middle">6</text><rect x="695.2" y="270.8" width="31.0" height="131.2" rx="2" fill="#64748b"/><text x="710.7" y="267.8" font-size="9.5" fill="#475569" text-anchor="middle">13</text><text x="662.2" y="424" font-size="13" font-weight="600" fill="#0f172a" text-anchor="middle">ds1</text><rect x="765.4" y="98.2" width="31.0" height="303.8" rx="2" fill="#16a34a"/><text x="780.9" y="95.2" font-size="9.5" fill="#475569" text-anchor="middle">30</text><rect x="798.4" y="333.2" width="31.0" height="68.8" rx="2" fill="#2563eb"/><text x="813.9" y="330.2" font-size="9.5" fill="#475569" text-anchor="middle">7</text><rect x="831.4" y="263.7" width="31.0" height="138.3" rx="2" fill="#ea580c"/><text x="846.9" y="260.7" font-size="9.5" fill="#475569" text-anchor="middle">14</text><rect x="864.4" y="255.9" width="31.0" height="146.1" rx="2" fill="#64748b"/><text x="879.9" y="252.9" font-size="9.5" fill="#475569" text-anchor="middle">14</text><text x="831.4" y="424" font-size="13" font-weight="600" fill="#0f172a" text-anchor="middle">oltp</text></svg>