<svg xmlns="http://www.w3.org/2000/svg" width="940" height="480" viewBox="0 0 940 480" font-family="-apple-system,Segoe UI,Helvetica,Arial,sans-serif"><rect width="940" height="480" fill="white"/><text x="24" y="30" font-size="20" font-weight="700" fill="#0f172a">Throughput (million ops/sec, higher is better)</text><text x="24" y="50" font-size="13" fill="#64748b">Multi-shard, cap 100k, same harness. loop omitted (micro working set). Note: ristretto trades hit ratio for speed.</text><rect x="70" y="67" width="13" height="13" rx="2" fill="#16a34a"/><text x="88" y="78" font-size="13" fill="#334155">kioshun</text><rect x="150" y="67" width="13" height="13" rx="2" fill="#2563eb"/><text x="168" y="78" font-size="13" fill="#334155">theine</text><rect x="222" y="67" width="13" height="13" rx="2" fill="#ea580c"/><text x="240" y="78" font-size="13" fill="#334155">otter</text><rect x="286" y="67" width="13" height="13" rx="2" fill="#64748b"/><text x="304" y="78" font-size="13" fill="#334155">ristretto</text><line x1="70" y1="402.0" x2="916" y2="402.0" stroke="#eef2f7"/><text x="62" y="406.0" font-size="11" fill="#94a3b8" text-anchor="end">0</text><line x1="70" y1="340.8" x2="916" y2="340.8" stroke="#eef2f7"/><text x="62" y="344.8" font-size="11" fill="#94a3b8" text-anchor="end">6</text><line x1="70" y1="279.6" x2="916" y2="279.6" stroke="#eef2f7"/><text x="62" y="283.6" font-size="11" fill="#94a3b8" text-anchor="end">12</text><line x1="70" y1="218.4" x2="916" y2="218.4" stroke="#eef2f7"/><text x="62" y="222.4" font-size="11" fill="#94a3b8" text-anchor="end">18</text><line x1="70" y1="157.2" x2="916" y2="157.2" stroke="#eef2f7"/><text x="62" y="161.2" font-size="11" fill="#94a3b8" text-anchor="end">24</text><line x1="70" y1="96.0" x2="916" y2="96.0" stroke="#eef2f7"/><text x="62" y="100.0" font-size="11" fill="#94a3b8" text-anchor="end">30</text><rect x="88.6" y="256.2" width="31.0" height="145.8" rx="2" fill="#16a34a"/><text x="104.1" y="253.2" font-size="9.5" fill="#475569" text-anchor="middle">14</text><rect x="121.6" y="364.6" width="31.0" height="37.4" rx="2" fill="#2563eb"/><text x="137.1" y="361.6" font-size="9.5" fill="#475569" text-anchor="middle">4</text><rect x="154.6" y="319.1" width="31.0" height="82.9" rx="2" fill="#ea580c"/><text x="170.1" y="316.1" font-size="9.5" fill="#475569" text-anchor="middle">8</text><rect x="187.6" y="250.6" width="31.0" height="151.4" rx="2" fill="#64748b"/><text x="203.1" y="247.6" font-size="9.5" fill="#475569" text-anchor="middle">15</text><text x="154.6" y="424" font-size="13" font-weight="600" fill="#0f172a" text-anchor="middle">p3</text><rect x="257.8" y="234.1" width="31.0" height="167.9" rx="2" fill="#16a34a"/><text x="273.3" y="231.1" font-size="9.5" fill="#475569" text-anchor="middle">16</text><rect x="290.8" y="362.4" width="31.0" height="39.6" rx="2" fill="#2563eb"/><text x="306.3" y="359.4" font-size="9.5" fill="#475569" text-anchor="middle">4</text><rect x="323.8" y="286.3" width="31.0" height="115.7" rx="2" fill="#ea580c"/><text x="339.3" y="283.3" font-size="9.5" fill="#475569" text-anchor="middle">11</text><rect x="356.8" y="143.0" width="31.0" height="259.0" rx="2" fill="#64748b"/><text x="372.3" y="140.0" font-size="9.5" fill="#475569" text-anchor="middle">25</text><text x="323.8" y="424" font-size="13" font-weight="600" fill="#0f172a" text-anchor="middle">p8</text><rect x="427.0" y="304.0" width="31.0" height="98.0" rx="2" fill="#16a34a"/><text x="442.5" y="301.0" font-size="9.5" fill="#475569" text-anchor="middle">10</text><rect x="460.0" y="375.2" width="31.0" height="26.8" rx="2" fill="#2563eb"/><text x="475.5" y="372.2" font-size="9.5" fill="#475569" text-anchor="middle">3</text><rect x="493.0" y="343.3" width="31.0" height="58.7" rx="2" fill="#ea580c"/><text x="508.5" y="340.3" font-size="9.5" fill="#475569" text-anchor="middle">6</text><rect x="526.0" y="295.9" width="31.0" height="106.1" rx="2" fill="#64748b"/><text x="541.5" y="292.9" font-size="9.5" fill="#475569" text-anchor="middle">10</text><text x="493.0" y="424" font-size="13" font-weight="600" fill="#0f172a" text-anchor="middle">s3</text><rect x="596.2" y="302.5" width="31.0" height="99.5" rx="2" fill="#16a34a"/><text x="611.7" y="299.5" font-size="9.5" fill="#475569" text-anchor="middle">10</text><rect x="629.2" y="379.6" width="31.0" height="22.4" rx="2" fill="#2563eb"/><text x="644.7" y="376.6" font-size="9.5" fill="#475569" text-anchor="middle">2</text><rect x="662.2" y="346.5" width="31.0" height="55.5" rx="2" fill="#ea580c"/><text x="677.7" y="343.5" font-size="9.5" fill="#475569" text-anchor="middle">5</text><rect x="695.2" y="257.5" width="31.0" height="144.5" rx="2" fill="#64748b"/><text x="710.7" y="254.5" font-size="9.5" fill="#475569" text-anchor="middle">14</text><text x="662.2" y="424" font-size="13" font-weight="600" fill="#0f172a" text-anchor="middle">ds1</text><rect x="765.4" y="96.9" width="31.0" height="305.1" rx="2" fill="#16a34a"/><text x="780.9" y="93.9" font-size="9.5" fill="#475569" text-anchor="middle">30</text><rect x="798.4" y="331.7" width="31.0" height="70.3" rx="2" fill="#2563eb"/><text x="813.9" y="328.7" font-size="9.5" fill="#475569" text-anchor="middle">7</text><rect x="831.4" y="264.5" width="31.0" height="137.5" rx="2" fill="#ea580c"/><text x="846.9" y="261.5" font-size="9.5" fill="#475569" text-anchor="middle">13</text><rect x="864.4" y="250.7" width="31.0" height="151.3" rx="2" fill="#64748b"/><text x="879.9" y="247.7" font-size="9.5" fill="#475569" text-anchor="middle">15</text><text x="831.4" y="424" font-size="13" font-weight="600" fill="#0f172a" text-anchor="middle">oltp</text></svg>